name E:\3-PhD\Data\MocapData\ElaboratedData\009\pre\dynamicElaborations\RunL1\RunL1.mot																																				
datacolumns 37																																				
datarows 73																																				
range 0.1435 0.1795																																				
endheader																																				
																																				
time	    ground_force1_vx	    ground_force1_vy	    ground_force1_vz	    ground_force1_px	    ground_force1_py	    ground_force1_pz	    ground_force2_vx	    ground_force2_vy	    ground_force2_vz	    ground_force2_px	    ground_force2_py	    ground_force2_pz	    ground_force3_vx	    ground_force3_vy	    ground_force3_vz	    ground_force3_px	    ground_force3_py	    ground_force3_pz	    ground_force4_vx	    ground_force4_vy	    ground_force4_vz	    ground_force4_px	    ground_force4_py	    ground_force4_pz	    ground_torque1_x	    ground_torque1_y	    ground_torque1_z	    ground_torque2_x	    ground_torque2_y	    ground_torque2_z	    ground_torque3_x	    ground_torque3_y	    ground_torque3_z	    ground_torque4_x	    ground_torque4_y	    ground_torque4_z
0.1435	-58.29111251	1758.665955	56.98841082	-2.33972652	0	0.29377319	0	0	0	0	0	0	0	0	0	0	0	0	0	0	0	0	0	0	0	2.70523935	0	0	0	0	0	0	0	0	0	0
0.144	-57.21961547	1772.853807	55.62001319	-2.33938376	0	0.29391507	0	0	0	0	0	0	0	0	0	0	0	0	0	0	0	0	0	0	0	2.52980531	0	0	0	0	0	0	0	0	0	0
0.1445	-56.11270192	1786.702392	54.25621298	-2.33903671	0	0.2940543	0	0	0	0	0	0	0	0	0	0	0	0	0	0	0	0	0	0	0	2.3548837	0	0	0	0	0	0	0	0	0	0
0.145	-54.96683548	1800.212495	52.89966807	-2.33868565	0	0.29419088	0	0	0	0	0	0	0	0	0	0	0	0	0	0	0	0	0	0	0	2.1808294	0	0	0	0	0	0	0	0	0	0
0.1455	-53.77857131	1813.385359	51.55297953	-2.33833087	0	0.2943248	0	0	0	0	0	0	0	0	0	0	0	0	0	0	0	0	0	0	0	2.00799319	0	0	0	0	0	0	0	0	0	0
0.146	-52.54457224	1826.222646	50.21868569	-2.33797265	0	0.29445604	0	0	0	0	0	0	0	0	0	0	0	0	0	0	0	0	0	0	0	1.83672088	0	0	0	0	0	0	0	0	0	0
0.1465	-51.2616237	1838.726413	48.89925994	-2.3376113	0	0.29458462	0	0	0	0	0	0	0	0	0	0	0	0	0	0	0	0	0	0	0	1.66735272	0	0	0	0	0	0	0	0	0	0
0.147	-49.92664481	1850.899079	47.59710935	-2.33724709	0	0.29471052	0	0	0	0	0	0	0	0	0	0	0	0	0	0	0	0	0	0	0	1.50022225	0	0	0	0	0	0	0	0	0	0
0.1475	-48.53669545	1862.743392	46.3145728	-2.33688031	0	0.29483373	0	0	0	0	0	0	0	0	0	0	0	0	0	0	0	0	0	0	0	1.33565461	0	0	0	0	0	0	0	0	0	0
0.148	-47.0889819	1874.262398	45.05391907	-2.33651125	0	0.29495426	0	0	0	0	0	0	0	0	0	0	0	0	0	0	0	0	0	0	0	1.17396522	0	0	0	0	0	0	0	0	0	0
0.1485	-45.58086248	1885.459409	43.81734673	-2.33614017	0	0.29507211	0	0	0	0	0	0	0	0	0	0	0	0	0	0	0	0	0	0	0	1.01545935	0	0	0	0	0	0	0	0	0	0
0.149	-44.00985186	1896.337973	42.606986	-2.33576735	0	0.29518727	0	0	0	0	0	0	0	0	0	0	0	0	0	0	0	0	0	0	0	0.86043197	0	0	0	0	0	0	0	0	0	0
0.1495	-42.37362338	1906.901846	41.42490083	-2.33539306	0	0.29529974	0	0	0	0	0	0	0	0	0	0	0	0	0	0	0	0	0	0	0	0.70916702	0	0	0	0	0	0	0	0	0	0
0.15	-40.67001002	1917.154959	40.27308868	-2.33501756	0	0.29540953	0	0	0	0	0	0	0	0	0	0	0	0	0	0	0	0	0	0	0	0.56193604	0	0	0	0	0	0	0	0	0	0
0.1505	-38.897005	1927.101398	39.15347754	-2.33464111	0	0.29551663	0	0	0	0	0	0	0	0	0	0	0	0	0	0	0	0	0	0	0	0.41899718	0	0	0	0	0	0	0	0	0	0
0.151	-37.05276202	1936.74537	38.0679223	-2.33426395	0	0.29562105	0	0	0	0	0	0	0	0	0	0	0	0	0	0	0	0	0	0	0	0.28059531	0	0	0	0	0	0	0	0	0	0
0.1515	-35.13559506	1946.091183	37.01820257	-2.33388632	0	0.29572279	0	0	0	0	0	0	0	0	0	0	0	0	0	0	0	0	0	0	0	0.14696207	0	0	0	0	0	0	0	0	0	0
0.152	-33.14397824	1955.143213	36.00602068	-2.33350847	0	0.29582184	0	0	0	0	0	0	0	0	0	0	0	0	0	0	0	0	0	0	0	0.01831537	0	0	0	0	0	0	0	0	0	0
0.1525	-31.07654525	1963.90588	35.032997	-2.33313061	0	0.29591823	0	0	0	0	0	0	0	0	0	0	0	0	0	0	0	0	0	0	0	-0.1051417	0	0	0	0	0	0	0	0	0	0
0.153	-28.93208655	1972.383624	34.10066135	-2.33275297	0	0.29601194	0	0	0	0	0	0	0	0	0	0	0	0	0	0	0	0	0	0	0	-0.22322122	0	0	0	0	0	0	0	0	0	0
0.1535	-26.70954389	1980.580882	33.21044304	-2.33237576	0	0.296103	0	0	0	0	0	0	0	0	0	0	0	0	0	0	0	0	0	0	0	-0.33574994	0	0	0	0	0	0	0	0	0	0
0.154	-24.40800449	1988.502066	32.36366317	-2.33199918	0	0.2961914	0	0	0	0	0	0	0	0	0	0	0	0	0	0	0	0	0	0	0	-0.44256881	0	0	0	0	0	0	0	0	0	0
0.1545	-22.02669618	1996.151541	31.56152969	-2.33162343	0	0.29627715	0	0	0	0	0	0	0	0	0	0	0	0	0	0	0	0	0	0	0	-0.54353325	0	0	0	0	0	0	0	0	0	0
0.155	-19.56498242	2003.53361	30.80513278	-2.33124869	0	0.29636028	0	0	0	0	0	0	0	0	0	0	0	0	0	0	0	0	0	0	0	-0.63851364	0	0	0	0	0	0	0	0	0	0
0.1555	-17.02235553	2010.652499	30.09543787	-2.33087514	0	0.29644078	0	0	0	0	0	0	0	0	0	0	0	0	0	0	0	0	0	0	0	-0.72739523	0	0	0	0	0	0	0	0	0	0
0.156	-14.3984281	2017.512342	29.4332768	-2.33050295	0	0.29651868	0	0	0	0	0	0	0	0	0	0	0	0	0	0	0	0	0	0	0	-0.81007737	0	0	0	0	0	0	0	0	0	0
0.1565	-11.69292437	2024.117171	28.81934048	-2.33013228	0	0.296594	0	0	0	0	0	0	0	0	0	0	0	0	0	0	0	0	0	0	0	-0.88647309	0	0	0	0	0	0	0	0	0	0
0.157	-8.90567284	2030.470895	28.25417404	-2.32976328	0	0.29666674	0	0	0	0	0	0	0	0	0	0	0	0	0	0	0	0	0	0	0	-0.95650956	0	0	0	0	0	0	0	0	0	0
0.1575	-6.03660045	2036.577299	27.73817352	-2.32939611	0	0.29673694	0	0	0	0	0	0	0	0	0	0	0	0	0	0	0	0	0	0	0	-1.02012876	0	0	0	0	0	0	0	0	0	0
0.158	-3.08572758	2042.440029	27.27158207	-2.32903089	0	0.29680463	0	0	0	0	0	0	0	0	0	0	0	0	0	0	0	0	0	0	0	-1.07728757	0	0	0	0	0	0	0	0	0	0
0.1585	-0.05316334	2048.062587	26.85448636	-2.32866776	0	0.29686981	0	0	0	0	0	0	0	0	0	0	0	0	0	0	0	0	0	0	0	-1.12795736	0	0	0	0	0	0	0	0	0	0
0.159	3.0608992	2053.448322	26.48681482	-2.32830684	0	0.29693253	0	0	0	0	0	0	0	0	0	0	0	0	0	0	0	0	0	0	0	-1.17212378	0	0	0	0	0	0	0	0	0	0
0.1595	6.25618758	2058.600429	26.16833885	-2.32794824	0	0.29699282	0	0	0	0	0	0	0	0	0	0	0	0	0	0	0	0	0	0	0	-1.20978726	0	0	0	0	0	0	0	0	0	0
0.16	9.53235296	2063.521944	25.8986768	-2.32759207	0	0.2970507	0	0	0	0	0	0	0	0	0	0	0	0	0	0	0	0	0	0	0	-1.24096345	0	0	0	0	0	0	0	0	0	0
0.1605	12.88897106	2068.215747	25.67729911	-2.32723843	0	0.29710623	0	0	0	0	0	0	0	0	0	0	0	0	0	0	0	0	0	0	0	-1.26568307	0	0	0	0	0	0	0	0	0	0
0.161	16.3255424	2072.684556	25.50353356	-2.32688741	0	0.29715942	0	0	0	0	0	0	0	0	0	0	0	0	0	0	0	0	0	0	0	-1.28399102	0	0	0	0	0	0	0	0	0	0
0.1615	19.8414935	2076.930937	25.3765712	-2.32653909	0	0.29721033	0	0	0	0	0	0	0	0	0	0	0	0	0	0	0	0	0	0	0	-1.2959458	0	0	0	0	0	0	0	0	0	0
0.162	23.43617828	2080.957296	25.29547363	-2.32619357	0	0.29725899	0	0	0	0	0	0	0	0	0	0	0	0	0	0	0	0	0	0	0	-1.30161946	0	0	0	0	0	0	0	0	0	0
0.1625	27.10887754	2084.765887	25.25918189	-2.3258509	0	0.29730546	0	0	0	0	0	0	0	0	0	0	0	0	0	0	0	0	0	0	0	-1.30109772	0	0	0	0	0	0	0	0	0	0
0.163	30.8587963	2088.358813	25.26652615	-2.32551116	0	0.29734978	0	0	0	0	0	0	0	0	0	0	0	0	0	0	0	0	0	0	0	-1.29447937	0	0	0	0	0	0	0	0	0	0
0.1635	34.68506113	2091.738033	25.31623556	-2.32517441	0	0.29739199	0	0	0	0	0	0	0	0	0	0	0	0	0	0	0	0	0	0	0	-1.28187526	0	0	0	0	0	0	0	0	0	0
0.164	38.58671906	2094.90537	25.4069479	-2.32484069	0	0.29743214	0	0	0	0	0	0	0	0	0	0	0	0	0	0	0	0	0	0	0	-1.26340762	0	0	0	0	0	0	0	0	0	0
0.1645	42.56273673	2097.862511	25.53721899	-2.32451006	0	0.2974703	0	0	0	0	0	0	0	0	0	0	0	0	0	0	0	0	0	0	0	-1.23920986	0	0	0	0	0	0	0	0	0	0
0.165	46.6119983	2100.611016	25.70553227	-2.32418255	0	0.2975065	0	0	0	0	0	0	0	0	0	0	0	0	0	0	0	0	0	0	0	-1.20942622	0	0	0	0	0	0	0	0	0	0
0.1655	50.73330266	2103.152324	25.91030823	-2.3238582	0	0.29754081	0	0	0	0	0	0	0	0	0	0	0	0	0	0	0	0	0	0	0	-1.17421067	0	0	0	0	0	0	0	0	0	0
0.166	54.92536178	2105.487756	26.1499134	-2.32353705	0	0.29757328	0	0	0	0	0	0	0	0	0	0	0	0	0	0	0	0	0	0	0	-1.13372568	0	0	0	0	0	0	0	0	0	0
0.1665	59.18680078	2107.618522	26.42266844	-2.32321911	0	0.29760396	0	0	0	0	0	0	0	0	0	0	0	0	0	0	0	0	0	0	0	-1.08814141	0	0	0	0	0	0	0	0	0	0
0.167	63.51615884	2109.545725	26.72685535	-2.32290439	0	0.29763291	0	0	0	0	0	0	0	0	0	0	0	0	0	0	0	0	0	0	0	-1.03763551	0	0	0	0	0	0	0	0	0	0
0.1675	67.91188951	2111.270364	27.06072406	-2.32259293	0	0.2976602	0	0	0	0	0	0	0	0	0	0	0	0	0	0	0	0	0	0	0	-0.98239269	0	0	0	0	0	0	0	0	0	0
0.168	72.37236055	2112.793342	27.42249839	-2.32228471	0	0.29768587	0	0	0	0	0	0	0	0	0	0	0	0	0	0	0	0	0	0	0	-0.92260371	0	0	0	0	0	0	0	0	0	0
0.1685	76.89585501	2114.115465	27.8103814	-2.32197975	0	0.29771	0	0	0	0	0	0	0	0	0	0	0	0	0	0	0	0	0	0	0	-0.85846416	0	0	0	0	0	0	0	0	0	0
0.169	81.48057422	2115.237456	28.2225603	-2.32167805	0	0.29773263	0	0	0	0	0	0	0	0	0	0	0	0	0	0	0	0	0	0	0	-0.7901739	0	0	0	0	0	0	0	0	0	0
0.1695	86.12464199	2116.159953	28.65721118	-2.32137959	0	0.29775383	0	0	0	0	0	0	0	0	0	0	0	0	0	0	0	0	0	0	0	-0.71793697	0	0	0	0	0	0	0	0	0	0
0.17	90.82610874	2116.88352	29.11250322	-2.32108437	0	0.29777365	0	0	0	0	0	0	0	0	0	0	0	0	0	0	0	0	0	0	0	-0.64196133	0	0	0	0	0	0	0	0	0	0
0.1705	95.58295517	2117.408649	29.58660262	-2.32079237	0	0.29779217	0	0	0	0	0	0	0	0	0	0	0	0	0	0	0	0	0	0	0	-0.56245802	0	0	0	0	0	0	0	0	0	0
0.171	100.3930965	2117.735762	30.07767554	-2.32050358	0	0.29780944	0	0	0	0	0	0	0	0	0	0	0	0	0	0	0	0	0	0	0	-0.47964018	0	0	0	0	0	0	0	0	0	0
0.1715	105.2543886	2117.865211	30.58389045	-2.32021797	0	0.29782551	0	0	0	0	0	0	0	0	0	0	0	0	0	0	0	0	0	0	0	-0.3937225	0	0	0	0	0	0	0	0	0	0
0.172	110.1646346	2117.797287	31.10342014	-2.31993552	0	0.29784046	0	0	0	0	0	0	0	0	0	0	0	0	0	0	0	0	0	0	0	-0.30492118	0	0	0	0	0	0	0	0	0	0
0.1725	115.1215916	2117.532218	31.63444398	-2.3196562	0	0.29785435	0	0	0	0	0	0	0	0	0	0	0	0	0	0	0	0	0	0	0	-0.21345363	0	0	0	0	0	0	0	0	0	0
0.173	120.1229757	2117.070176	32.17515064	-2.31937998	0	0.29786723	0	0	0	0	0	0	0	0	0	0	0	0	0	0	0	0	0	0	0	-0.11953783	0	0	0	0	0	0	0	0	0	0
0.1735	125.1664669	2116.411272	32.72374077	-2.31910683	0	0.29787916	0	0	0	0	0	0	0	0	0	0	0	0	0	0	0	0	0	0	0	-0.02339152	0	0	0	0	0	0	0	0	0	0
0.174	130.2497153	2115.555566	33.27842937	-2.31883671	0	0.29789021	0	0	0	0	0	0	0	0	0	0	0	0	0	0	0	0	0	0	0	0.07476803	0	0	0	0	0	0	0	0	0	0
0.1745	135.3703467	2114.503065	33.83744763	-2.31856958	0	0.29790043	0	0	0	0	0	0	0	0	0	0	0	0	0	0	0	0	0	0	0	0.17472409	0	0	0	0	0	0	0	0	0	0
0.175	140.5259683	2113.253732	34.39904501	-2.31830541	0	0.29790989	0	0	0	0	0	0	0	0	0	0	0	0	0	0	0	0	0	0	0	0.27626069	0	0	0	0	0	0	0	0	0	0
0.1755	145.7141711	2111.807485	34.96149217	-2.31804416	0	0.29791864	0	0	0	0	0	0	0	0	0	0	0	0	0	0	0	0	0	0	0	0.37916326	0	0	0	0	0	0	0	0	0	0
0.176	150.9325338	2110.164207	35.52308439	-2.31778577	0	0.29792674	0	0	0	0	0	0	0	0	0	0	0	0	0	0	0	0	0	0	0	0.48321938	0	0	0	0	0	0	0	0	0	0
0.1765	156.1786253	2108.323745	36.08214497	-2.31753021	0	0.29793425	0	0	0	0	0	0	0	0	0	0	0	0	0	0	0	0	0	0	0	0.58821904	0	0	0	0	0	0	0	0	0	0
0.177	161.4500079	2106.285912	36.63702799	-2.31727742	0	0.29794122	0	0	0	0	0	0	0	0	0	0	0	0	0	0	0	0	0	0	0	0.69395459	0	0	0	0	0	0	0	0	0	0
0.1775	166.7442389	2104.050494	37.18612077	-2.31702736	0	0.29794772	0	0	0	0	0	0	0	0	0	0	0	0	0	0	0	0	0	0	0	0.80022109	0	0	0	0	0	0	0	0	0	0
0.178	172.0588708	2101.617248	37.72784672	-2.31677998	0	0.29795378	0	0	0	0	0	0	0	0	0	0	0	0	0	0	0	0	0	0	0	0.90681698	0	0	0	0	0	0	0	0	0	0
0.1785	177.3914529	2098.985914	38.26066886	-2.31653522	0	0.29795948	0	0	0	0	0	0	0	0	0	0	0	0	0	0	0	0	0	0	0	1.01354481	0	0	0	0	0	0	0	0	0	0
0.179	182.7395307	2096.156212	38.78309361	-2.31629304	0	0.29796485	0	0	0	0	0	0	0	0	0	0	0	0	0	0	0	0	0	0	0	1.12021132	0	0	0	0	0	0	0	0	0	0
0.1795	188.100646	2093.127855	39.29367391	-2.31605338	0	0.29796996	0	0	0	0	0	0	0	0	0	0	0	0	0	0	0	0	0	0	0	1.22662728	0	0	0	0	0	0	0	0	0	0
